<svg xmlns="http://www.w3.org/2000/svg" viewBox="0 0 10077 10595" width="1008" height="1060"><rect width="10077" height="10595" fill="#fff"></rect><text x="450" y="420" font-family="Helvetica, Arial, sans-serif" font-size="230" font-weight="700" letter-spacing="18.400000000000002" text-anchor="start" fill="#1b1b1b">Sprinter MWB</text><text x="450" y="640" font-family="Helvetica, Arial, sans-serif" font-size="130" font-weight="400" letter-spacing="10.4" text-anchor="start" fill="#555">L2H2 · wheelbase 3,924 mm</text><text x="9627" y="420" font-family="Helvetica, Arial, sans-serif" font-size="130" font-weight="700" letter-spacing="10.4" text-anchor="end" fill="#1b1b1b">OOOSH TOURS</text><text x="9627" y="640" font-family="Helvetica, Arial, sans-serif" font-size="110" font-weight="400" letter-spacing="8.8" text-anchor="end" fill="#555">VEHICLE OUTLINE</text><g transform="translate(450,780)"><path d="M 4832 162.5 L 4772 82.5 L 4762 6 L 4572 6 L 4592 92.5 L 4692 162.5 Z" fill="#fff" stroke="#1b1b1b" stroke-width="12" stroke-linejoin="round" stroke-linecap="round"></path><path d="M 4832 2182.5 L 4772 2262.5 L 4762 2339 L 4572 2339 L 4592 2252.5 L 4692 2182.5 Z" fill="#fff" stroke="#1b1b1b" stroke-width="12" stroke-linejoin="round" stroke-linecap="round"></path><path d="M 0 242.5 Q 0 162.5 80 162.5 L 4882 162.5 C 5332 162.5 5682 212.5 5852 322.5 Q 5932 422.5 5932 682.5 L 5932 1662.5 Q 5932 1922.5 5852 2022.5 C 5682 2132.5 5332 2182.5 4882 2182.5 L 80 2182.5 Q 0 2182.5 0 2102.5 Z" fill="#fff" stroke="#1b1b1b" stroke-width="20" stroke-linejoin="round" stroke-linecap="round"></path><path d="M 5132 312.5 Q 5212 1172.5 5132 2032.5 L 4452 2052.5 Q 4392 1172.5 4452 292.5 Z" fill="#dfe4e8" stroke="#1b1b1b" stroke-width="12" stroke-linejoin="round" stroke-linecap="round"></path><line x1="5772" y1="612.5" x2="5172" y2="452.5" stroke="#1b1b1b" stroke-width="8" stroke-linecap="round"></line><line x1="5772" y1="1732.5" x2="5172" y2="1892.5" stroke="#1b1b1b" stroke-width="8" stroke-linecap="round"></line><path d="M 3882 222.5 Q 3822 1172.5 3882 2122.5" fill="none" stroke="#1b1b1b" stroke-width="12" stroke-linejoin="round" stroke-linecap="round"></path><line x1="60" y1="242.5" x2="4382" y2="242.5" stroke="#1b1b1b" stroke-width="8" stroke-linecap="round"></line><line x1="60" y1="2102.5" x2="4382" y2="2102.5" stroke="#1b1b1b" stroke-width="8" stroke-linecap="round"></line><line x1="1327.3333333333333" y1="242.5" x2="1327.3333333333333" y2="2102.5" stroke="#1b1b1b" stroke-width="8" stroke-linecap="round"></line><line x1="2554.6666666666665" y1="242.5" x2="2554.6666666666665" y2="2102.5" stroke="#1b1b1b" stroke-width="8" stroke-linecap="round"></line><line x1="220" y1="552.5" x2="1207.3333333333333" y2="552.5" stroke="#1b1b1b" stroke-width="8" stroke-linecap="round"></line><line x1="220" y1="892.5" x2="1207.3333333333333" y2="892.5" stroke="#1b1b1b" stroke-width="8" stroke-linecap="round"></line><line x1="220" y1="1452.5" x2="1207.3333333333333" y2="1452.5" stroke="#1b1b1b" stroke-width="8" stroke-linecap="round"></line><line x1="220" y1="1792.5" x2="1207.3333333333333" y2="1792.5" stroke="#1b1b1b" stroke-width="8" stroke-linecap="round"></line><line x1="1447.3333333333333" y1="552.5" x2="2434.6666666666665" y2="552.5" stroke="#1b1b1b" stroke-width="8" stroke-linecap="round"></line><line x1="1447.3333333333333" y1="892.5" x2="2434.6666666666665" y2="892.5" stroke="#1b1b1b" stroke-width="8" stroke-linecap="round"></line><line x1="1447.3333333333333" y1="1452.5" x2="2434.6666666666665" y2="1452.5" stroke="#1b1b1b" stroke-width="8" stroke-linecap="round"></line><line x1="1447.3333333333333" y1="1792.5" x2="2434.6666666666665" y2="1792.5" stroke="#1b1b1b" stroke-width="8" stroke-linecap="round"></line><line x1="2674.6666666666665" y1="552.5" x2="3662" y2="552.5" stroke="#1b1b1b" stroke-width="8" stroke-linecap="round"></line><line x1="2674.6666666666665" y1="892.5" x2="3662" y2="892.5" stroke="#1b1b1b" stroke-width="8" stroke-linecap="round"></line><line x1="2674.6666666666665" y1="1452.5" x2="3662" y2="1452.5" stroke="#1b1b1b" stroke-width="8" stroke-linecap="round"></line><line x1="2674.6666666666665" y1="1792.5" x2="3662" y2="1792.5" stroke="#1b1b1b" stroke-width="8" stroke-linecap="round"></line><line x1="70" y1="232.5" x2="70" y2="2112.5" stroke="#1b1b1b" stroke-width="12" stroke-linecap="round"></line></g><text x="3416" y="3445" font-family="Helvetica, Arial, sans-serif" font-size="120" font-weight="700" letter-spacing="9.6" text-anchor="middle" fill="#1b1b1b">ROOF  (FRONT →)</text><g transform="translate(6382,3895) scale(-1,1)"><clipPath id="cl-o-sprinter-mwb"><path d="M 60 2350 L 10 2210 L 0 1860 Q 0 1580 60 1530 Q 420 1400 800 1330 L 1500 380 Q 1680 100 2050 40 L 5842 20 Q 5932 20 5932 120 L 5932 2260 L 5882 2350 L 5454 2350 L 5394 2230 A 470 470 0 0 0 4454 2230 L 1470 2230 A 470 470 0 0 0 530 2230 L 470 2350 Z"></path></clipPath><path d="M 60 2350 L 10 2210 L 0 1860 Q 0 1580 60 1530 Q 420 1400 800 1330 L 1500 380 Q 1680 100 2050 40 L 5842 20 Q 5932 20 5932 120 L 5932 2260 L 5882 2350 L 5454 2350 L 5394 2230 A 470 470 0 0 0 4454 2230 L 1470 2230 A 470 470 0 0 0 530 2230 L 470 2350 Z" fill="#fff" stroke="#1b1b1b" stroke-width="0.01" stroke-linejoin="round" stroke-linecap="round"></path><g clip-path="url(#cl-o-sprinter-mwb)"><rect x="-50" y="1730" width="6032" height="250" rx="0" fill="#c7cacc" stroke="#1b1b1b" stroke-width="12"></rect><rect x="-50" y="1860" width="610" height="900" rx="0" fill="#c7cacc" stroke="#1b1b1b" stroke-width="12"></rect><rect x="5632" y="1880" width="400" height="900" rx="0" fill="#c7cacc" stroke="#1b1b1b" stroke-width="12"></rect></g><path d="M 1500 380 L 800 1330 L 960 1310 L 1476.97 520 Z" fill="#dfe4e8" stroke="#1b1b1b" stroke-width="12" stroke-linejoin="round" stroke-linecap="round"></path><path d="M 1490 2210 A 490 490 0 0 0 1200 1783 L 1200 964 L 1579 450 Q 1640 380 1720 380 L 2020 380 L 2020 2210 Z" fill="none" stroke="#1b1b1b" stroke-width="12" stroke-linejoin="round" stroke-linecap="round"></path><path d="M 1300 1230 L 1300 950 L 1646 480 L 1950 460 L 1950 1120 Z" fill="#dfe4e8" stroke="#1b1b1b" stroke-width="12" stroke-linejoin="round" stroke-linecap="round"></path><rect x="1100" y="860" width="190" height="300" rx="60" fill="#fff" stroke="#1b1b1b" stroke-width="12"></rect><rect x="1780" y="1275" width="170" height="50" rx="22" fill="#fff" stroke="#1b1b1b" stroke-width="8"></rect><path d="M 70 1560 L 600 1420 L 660 1490 L 110 1670 Z" fill="#f1f1f1" stroke="#1b1b1b" stroke-width="12" stroke-linejoin="round" stroke-linecap="round"></path><rect x="60" y="2080" width="140" height="60" rx="20" fill="#fff" stroke="#1b1b1b" stroke-width="8"></rect><path d="M 2050 2210 L 2050 200 L 3450 200 L 3450 2210 Z" fill="none" stroke="#1b1b1b" stroke-width="12" stroke-linejoin="round" stroke-linecap="round"></path><rect x="2110" y="1275" width="170" height="50" rx="22" fill="#fff" stroke="#1b1b1b" stroke-width="8"></rect><rect x="2140" y="460" width="1220" height="720" rx="70" fill="#dfe4e8" stroke="#1b1b1b" stroke-width="12"></rect><line x1="2000" y1="160" x2="5822" y2="160" stroke="#1b1b1b" stroke-width="8" stroke-linecap="round"></line><line x1="5862" y1="1880" x2="5862" y2="90" stroke="#1b1b1b" stroke-width="12" stroke-linecap="round"></line><rect x="5870" y="1080" width="62" height="720" rx="10" fill="#f1f1f1" stroke="#1b1b1b" stroke-width="12"></rect><rect x="1735" y="1840" width="70" height="35" rx="10" fill="#fff" stroke="#1b1b1b" stroke-width="8"></rect><rect x="2927" y="1840" width="70" height="35" rx="10" fill="#fff" stroke="#1b1b1b" stroke-width="8"></rect><rect x="4119" y="1840" width="70" height="35" rx="10" fill="#fff" stroke="#1b1b1b" stroke-width="8"></rect><path d="M 60 2350 L 10 2210 L 0 1860 Q 0 1580 60 1530 Q 420 1400 800 1330 L 1500 380 Q 1680 100 2050 40 L 5842 20 Q 5932 20 5932 120 L 5932 2260 L 5882 2350 L 5454 2350 L 5394 2230 A 470 470 0 0 0 4454 2230 L 1470 2230 A 470 470 0 0 0 530 2230 L 470 2350 Z" fill="none" stroke="#1b1b1b" stroke-width="20" stroke-linejoin="round" stroke-linecap="round"></path><circle cx="1000" cy="2325" r="355" fill="#3a3a3a" stroke="#1b1b1b" stroke-width="20"></circle><circle cx="1000" cy="2325" r="227.20000000000002" fill="#fff" stroke="#1b1b1b" stroke-width="12"></circle><circle cx="1000" cy="2325" r="71" fill="#fff" stroke="#1b1b1b" stroke-width="8"></circle><circle cx="1000" cy="2175.9" r="24.85" fill="#fff" stroke="#1b1b1b" stroke-width="8"></circle><circle cx="1141.8025265796073" cy="2278.9255661386956" r="24.85" fill="#fff" stroke="#1b1b1b" stroke-width="8"></circle><circle cx="1087.6387811168076" cy="2445.6244338613046" r="24.85" fill="#fff" stroke="#1b1b1b" stroke-width="8"></circle><circle cx="912.3612188831922" cy="2445.6244338613046" r="24.85" fill="#fff" stroke="#1b1b1b" stroke-width="8"></circle><circle cx="858.1974734203926" cy="2278.9255661386956" r="24.85" fill="#fff" stroke="#1b1b1b" stroke-width="8"></circle><circle cx="4924" cy="2325" r="355" fill="#3a3a3a" stroke="#1b1b1b" stroke-width="20"></circle><circle cx="4924" cy="2325" r="227.20000000000002" fill="#fff" stroke="#1b1b1b" stroke-width="12"></circle><circle cx="4924" cy="2325" r="71" fill="#fff" stroke="#1b1b1b" stroke-width="8"></circle><circle cx="4924" cy="2175.9" r="24.85" fill="#fff" stroke="#1b1b1b" stroke-width="8"></circle><circle cx="5065.802526579608" cy="2278.9255661386956" r="24.85" fill="#fff" stroke="#1b1b1b" stroke-width="8"></circle><circle cx="5011.638781116808" cy="2445.6244338613046" r="24.85" fill="#fff" stroke="#1b1b1b" stroke-width="8"></circle><circle cx="4836.361218883192" cy="2445.6244338613046" r="24.85" fill="#fff" stroke="#1b1b1b" stroke-width="8"></circle><circle cx="4782.197473420392" cy="2278.9255661386956" r="24.85" fill="#fff" stroke="#1b1b1b" stroke-width="8"></circle></g><line x1="250" y1="6575" x2="6582" y2="6575" stroke="#1b1b1b" stroke-width="12" stroke-linecap="round"></line><text x="3416" y="6895" font-family="Helvetica, Arial, sans-serif" font-size="120" font-weight="700" letter-spacing="9.6" text-anchor="middle" fill="#1b1b1b">OFFSIDE  ·  DRIVER</text><g transform="translate(7282,3895)"><rect x="204.5" y="2340" width="236" height="340" rx="40" fill="#3a3a3a" stroke="#1b1b1b" stroke-width="20"></rect><rect x="1904.5" y="2340" width="236" height="340" rx="40" fill="#3a3a3a" stroke="#1b1b1b" stroke-width="20"></rect><path d="M 187.5 1120 L 66 1140" fill="none" stroke="#1b1b1b" stroke-width="12" stroke-linejoin="round" stroke-linecap="round"></path><rect x="6" y="860" width="110" height="320" rx="30" fill="#fff" stroke="#1b1b1b" stroke-width="12"></rect><path d="M 2157.5 1120 L 2279 1140" fill="none" stroke="#1b1b1b" stroke-width="12" stroke-linejoin="round" stroke-linecap="round"></path><rect x="2229" y="860" width="110" height="320" rx="30" fill="#fff" stroke="#1b1b1b" stroke-width="12"></rect><clipPath id="csprinter1"><path d="M 182.5 2380 L 167.5 1430 L 242.5 230 Q 272.5 0 572.5 0 L 1772.5 0 Q 2072.5 0 2102.5 230 L 2177.5 1430 L 2162.5 2380 Z"></path></clipPath><path d="M 182.5 2380 L 167.5 1430 L 242.5 230 Q 272.5 0 572.5 0 L 1772.5 0 Q 2072.5 0 2102.5 230 L 2177.5 1430 L 2162.5 2380 Z" fill="#fff" stroke="#1b1b1b" stroke-width="0.01" stroke-linejoin="round" stroke-linecap="round"></path><g clip-path="url(#csprinter1)"><rect x="72.5" y="1960" width="2200" height="480" rx="0" fill="#c7cacc" stroke="#1b1b1b" stroke-width="12"></rect></g><path d="M 302.5 1320 L 2042.5 1320 L 1942.5 380 Q 1172.5 340 402.5 380 Z" fill="#dfe4e8" stroke="#1b1b1b" stroke-width="12" stroke-linejoin="round" stroke-linecap="round"></path><path d="M 272.5 220 Q 1172.5 170 2072.5 220" fill="none" stroke="#1b1b1b" stroke-width="8" stroke-linejoin="round" stroke-linecap="round"></path><path d="M 212.5 1510 Q 1172.5 1480 2132.5 1510" fill="none" stroke="#1b1b1b" stroke-width="12" stroke-linejoin="round" stroke-linecap="round"></path><rect x="752.5" y="1550" width="840" height="410" rx="50" fill="#fff" stroke="#1b1b1b" stroke-width="12"></rect><line x1="752.5" y1="1690" x2="1592.5" y2="1690" stroke="#1b1b1b" stroke-width="8" stroke-linecap="round"></line><line x1="752.5" y1="1820" x2="1592.5" y2="1820" stroke="#1b1b1b" stroke-width="8" stroke-linecap="round"></line><circle cx="1172.5" cy="1750" r="105" fill="#fff" stroke="#1b1b1b" stroke-width="12"></circle><path d="M 702.5 1550 L 207.5 1530 L 192.5 1690 L 672.5 1740 Z" fill="#f1f1f1" stroke="#1b1b1b" stroke-width="12" stroke-linejoin="round" stroke-linecap="round"></path><rect x="272.5" y="2090" width="140" height="70" rx="20" fill="#fff" stroke="#1b1b1b" stroke-width="8"></rect><path d="M 1642.5 1550 L 2137.5 1530 L 2152.5 1690 L 1672.5 1740 Z" fill="#f1f1f1" stroke="#1b1b1b" stroke-width="12" stroke-linejoin="round" stroke-linecap="round"></path><rect x="1932.5" y="2090" width="140" height="70" rx="20" fill="#fff" stroke="#1b1b1b" stroke-width="8"></rect><rect x="912.5" y="2120" width="520" height="110" rx="10" fill="#fff" stroke="#1b1b1b" stroke-width="12"></rect><path d="M 182.5 2380 L 167.5 1430 L 242.5 230 Q 272.5 0 572.5 0 L 1772.5 0 Q 2072.5 0 2102.5 230 L 2177.5 1430 L 2162.5 2380 Z" fill="none" stroke="#1b1b1b" stroke-width="20" stroke-linejoin="round" stroke-linecap="round"></path></g><line x1="7132" y1="6575" x2="9777" y2="6575" stroke="#1b1b1b" stroke-width="12" stroke-linecap="round"></line><text x="8454.5" y="6895" font-family="Helvetica, Arial, sans-serif" font-size="120" font-weight="700" letter-spacing="9.6" text-anchor="middle" fill="#1b1b1b">FRONT</text><g transform="translate(450,7345)"><clipPath id="cl-n-sprinter-mwb"><path d="M 60 2350 L 10 2210 L 0 1860 Q 0 1580 60 1530 Q 420 1400 800 1330 L 1500 380 Q 1680 100 2050 40 L 5842 20 Q 5932 20 5932 120 L 5932 2260 L 5882 2350 L 5454 2350 L 5394 2230 A 470 470 0 0 0 4454 2230 L 1470 2230 A 470 470 0 0 0 530 2230 L 470 2350 Z"></path></clipPath><path d="M 60 2350 L 10 2210 L 0 1860 Q 0 1580 60 1530 Q 420 1400 800 1330 L 1500 380 Q 1680 100 2050 40 L 5842 20 Q 5932 20 5932 120 L 5932 2260 L 5882 2350 L 5454 2350 L 5394 2230 A 470 470 0 0 0 4454 2230 L 1470 2230 A 470 470 0 0 0 530 2230 L 470 2350 Z" fill="#fff" stroke="#1b1b1b" stroke-width="0.01" stroke-linejoin="round" stroke-linecap="round"></path><g clip-path="url(#cl-n-sprinter-mwb)"><rect x="-50" y="1730" width="6032" height="250" rx="0" fill="#c7cacc" stroke="#1b1b1b" stroke-width="12"></rect><rect x="-50" y="1860" width="610" height="900" rx="0" fill="#c7cacc" stroke="#1b1b1b" stroke-width="12"></rect><rect x="5632" y="1880" width="400" height="900" rx="0" fill="#c7cacc" stroke="#1b1b1b" stroke-width="12"></rect></g><path d="M 1500 380 L 800 1330 L 960 1310 L 1476.97 520 Z" fill="#dfe4e8" stroke="#1b1b1b" stroke-width="12" stroke-linejoin="round" stroke-linecap="round"></path><path d="M 1490 2210 A 490 490 0 0 0 1200 1783 L 1200 964 L 1579 450 Q 1640 380 1720 380 L 2020 380 L 2020 2210 Z" fill="none" stroke="#1b1b1b" stroke-width="12" stroke-linejoin="round" stroke-linecap="round"></path><path d="M 1300 1230 L 1300 950 L 1646 480 L 1950 460 L 1950 1120 Z" fill="#dfe4e8" stroke="#1b1b1b" stroke-width="12" stroke-linejoin="round" stroke-linecap="round"></path><rect x="1100" y="860" width="190" height="300" rx="60" fill="#fff" stroke="#1b1b1b" stroke-width="12"></rect><rect x="1780" y="1275" width="170" height="50" rx="22" fill="#fff" stroke="#1b1b1b" stroke-width="8"></rect><path d="M 70 1560 L 600 1420 L 660 1490 L 110 1670 Z" fill="#f1f1f1" stroke="#1b1b1b" stroke-width="12" stroke-linejoin="round" stroke-linecap="round"></path><rect x="60" y="2080" width="140" height="60" rx="20" fill="#fff" stroke="#1b1b1b" stroke-width="8"></rect><path d="M 2050 2210 L 2050 200 L 3450 200 L 3450 2210 Z" fill="none" stroke="#1b1b1b" stroke-width="12" stroke-linejoin="round" stroke-linecap="round"></path><rect x="2110" y="1275" width="170" height="50" rx="22" fill="#fff" stroke="#1b1b1b" stroke-width="8"></rect><rect x="2140" y="460" width="1220" height="720" rx="70" fill="#dfe4e8" stroke="#1b1b1b" stroke-width="12"></rect><rect x="3470" y="1200" width="2162" height="40" rx="18" fill="#fff" stroke="#1b1b1b" stroke-width="8"></rect><line x1="2000" y1="160" x2="5822" y2="160" stroke="#1b1b1b" stroke-width="8" stroke-linecap="round"></line><line x1="5862" y1="1880" x2="5862" y2="90" stroke="#1b1b1b" stroke-width="12" stroke-linecap="round"></line><rect x="5870" y="1080" width="62" height="720" rx="10" fill="#f1f1f1" stroke="#1b1b1b" stroke-width="12"></rect><rect x="1735" y="1840" width="70" height="35" rx="10" fill="#fff" stroke="#1b1b1b" stroke-width="8"></rect><rect x="2927" y="1840" width="70" height="35" rx="10" fill="#fff" stroke="#1b1b1b" stroke-width="8"></rect><rect x="4119" y="1840" width="70" height="35" rx="10" fill="#fff" stroke="#1b1b1b" stroke-width="8"></rect><path d="M 60 2350 L 10 2210 L 0 1860 Q 0 1580 60 1530 Q 420 1400 800 1330 L 1500 380 Q 1680 100 2050 40 L 5842 20 Q 5932 20 5932 120 L 5932 2260 L 5882 2350 L 5454 2350 L 5394 2230 A 470 470 0 0 0 4454 2230 L 1470 2230 A 470 470 0 0 0 530 2230 L 470 2350 Z" fill="none" stroke="#1b1b1b" stroke-width="20" stroke-linejoin="round" stroke-linecap="round"></path><circle cx="1000" cy="2325" r="355" fill="#3a3a3a" stroke="#1b1b1b" stroke-width="20"></circle><circle cx="1000" cy="2325" r="227.20000000000002" fill="#fff" stroke="#1b1b1b" stroke-width="12"></circle><circle cx="1000" cy="2325" r="71" fill="#fff" stroke="#1b1b1b" stroke-width="8"></circle><circle cx="1000" cy="2175.9" r="24.85" fill="#fff" stroke="#1b1b1b" stroke-width="8"></circle><circle cx="1141.8025265796073" cy="2278.9255661386956" r="24.85" fill="#fff" stroke="#1b1b1b" stroke-width="8"></circle><circle cx="1087.6387811168076" cy="2445.6244338613046" r="24.85" fill="#fff" stroke="#1b1b1b" stroke-width="8"></circle><circle cx="912.3612188831922" cy="2445.6244338613046" r="24.85" fill="#fff" stroke="#1b1b1b" stroke-width="8"></circle><circle cx="858.1974734203926" cy="2278.9255661386956" r="24.85" fill="#fff" stroke="#1b1b1b" stroke-width="8"></circle><circle cx="4924" cy="2325" r="355" fill="#3a3a3a" stroke="#1b1b1b" stroke-width="20"></circle><circle cx="4924" cy="2325" r="227.20000000000002" fill="#fff" stroke="#1b1b1b" stroke-width="12"></circle><circle cx="4924" cy="2325" r="71" fill="#fff" stroke="#1b1b1b" stroke-width="8"></circle><circle cx="4924" cy="2175.9" r="24.85" fill="#fff" stroke="#1b1b1b" stroke-width="8"></circle><circle cx="5065.802526579608" cy="2278.9255661386956" r="24.85" fill="#fff" stroke="#1b1b1b" stroke-width="8"></circle><circle cx="5011.638781116808" cy="2445.6244338613046" r="24.85" fill="#fff" stroke="#1b1b1b" stroke-width="8"></circle><circle cx="4836.361218883192" cy="2445.6244338613046" r="24.85" fill="#fff" stroke="#1b1b1b" stroke-width="8"></circle><circle cx="4782.197473420392" cy="2278.9255661386956" r="24.85" fill="#fff" stroke="#1b1b1b" stroke-width="8"></circle></g><line x1="250" y1="10025" x2="6582" y2="10025" stroke="#1b1b1b" stroke-width="12" stroke-linecap="round"></line><text x="3416" y="10345" font-family="Helvetica, Arial, sans-serif" font-size="120" font-weight="700" letter-spacing="9.6" text-anchor="middle" fill="#1b1b1b">NEARSIDE  ·  PASSENGER</text><g transform="translate(7282,7345)"><rect x="204.5" y="2340" width="236" height="340" rx="40" fill="#3a3a3a" stroke="#1b1b1b" stroke-width="20"></rect><rect x="1904.5" y="2340" width="236" height="340" rx="40" fill="#3a3a3a" stroke="#1b1b1b" stroke-width="20"></rect><path d="M 187.5 1120 L 66 1140" fill="none" stroke="#1b1b1b" stroke-width="12" stroke-linejoin="round" stroke-linecap="round"></path><rect x="6" y="860" width="110" height="320" rx="30" fill="#fff" stroke="#1b1b1b" stroke-width="12"></rect><path d="M 2157.5 1120 L 2279 1140" fill="none" stroke="#1b1b1b" stroke-width="12" stroke-linejoin="round" stroke-linecap="round"></path><rect x="2229" y="860" width="110" height="320" rx="30" fill="#fff" stroke="#1b1b1b" stroke-width="12"></rect><clipPath id="csprinter2"><path d="M 182.5 2380 L 167.5 1430 L 242.5 230 Q 272.5 0 572.5 0 L 1772.5 0 Q 2072.5 0 2102.5 230 L 2177.5 1430 L 2162.5 2380 Z"></path></clipPath><path d="M 182.5 2380 L 167.5 1430 L 242.5 230 Q 272.5 0 572.5 0 L 1772.5 0 Q 2072.5 0 2102.5 230 L 2177.5 1430 L 2162.5 2380 Z" fill="#fff" stroke="#1b1b1b" stroke-width="0.01" stroke-linejoin="round" stroke-linecap="round"></path><g clip-path="url(#csprinter2)"><rect x="72.5" y="2060" width="2200" height="400" rx="0" fill="#c7cacc" stroke="#1b1b1b" stroke-width="12"></rect></g><path d="M 237.5 2040 L 237.5 280 Q 272.5 100 472.5 100 L 1872.5 100 Q 2072.5 100 2107.5 280 L 2107.5 2040" fill="none" stroke="#1b1b1b" stroke-width="12" stroke-linejoin="round" stroke-linecap="round"></path><line x1="1172.5" y1="2040" x2="1172.5" y2="100" stroke="#1b1b1b" stroke-width="12" stroke-linecap="round"></line><rect x="169.5" y="1180" width="68" height="750" rx="8" fill="#f1f1f1" stroke="#1b1b1b" stroke-width="12"></rect><rect x="2107.5" y="1180" width="68" height="750" rx="8" fill="#f1f1f1" stroke="#1b1b1b" stroke-width="12"></rect><rect x="972.5" y="40" width="400" height="35" rx="10" fill="#f1f1f1" stroke="#1b1b1b" stroke-width="8"></rect><rect x="1232.5" y="1270" width="200" height="55" rx="22" fill="#fff" stroke="#1b1b1b" stroke-width="8"></rect><rect x="912.5" y="1920" width="520" height="110" rx="10" fill="#fff" stroke="#1b1b1b" stroke-width="12"></rect><line x1="182.5" y1="2210" x2="2162.5" y2="2210" stroke="#1b1b1b" stroke-width="8" stroke-linecap="round"></line><path d="M 182.5 2380 L 167.5 1430 L 242.5 230 Q 272.5 0 572.5 0 L 1772.5 0 Q 2072.5 0 2102.5 230 L 2177.5 1430 L 2162.5 2380 Z" fill="none" stroke="#1b1b1b" stroke-width="20" stroke-linejoin="round" stroke-linecap="round"></path></g><line x1="7132" y1="10025" x2="9777" y2="10025" stroke="#1b1b1b" stroke-width="12" stroke-linecap="round"></line><text x="8454.5" y="10345" font-family="Helvetica, Arial, sans-serif" font-size="120" font-weight="700" letter-spacing="9.6" text-anchor="middle" fill="#1b1b1b">REAR</text></svg>
